<?xml version="1.0" encoding="UTF-8"?>
<svg width="128" height="128" viewBox="0 0 128 128" xmlns="http://www.w3.org/2000/svg">
  <defs>
    <linearGradient id="backgroundGradient" x1="0%" y1="0%" x2="100%" y2="100%">
      <stop offset="0%" style="stop-color:#667eea;stop-opacity:1" />
      <stop offset="100%" style="stop-color:#764ba2;stop-opacity:1" />
    </linearGradient>
    <linearGradient id="lockGradient" x1="0%" y1="0%" x2="100%" y2="100%">
      <stop offset="0%" style="stop-color:#ffffff;stop-opacity:1" />
      <stop offset="100%" style="stop-color:#f8f9fa;stop-opacity:1" />
    </linearGradient>
    <filter id="shadow" x="-20%" y="-20%" width="140%" height="140%">
      <feDropShadow dx="2" dy="2" stdDeviation="3" flood-color="#000000" flood-opacity="0.3"/>
    </filter>
  </defs>
  
  <!-- 背景圆形 -->
  <circle cx="64" cy="64" r="60" fill="url(#backgroundGradient)" filter="url(#shadow)"/>
  
  <!-- 锁的主体 -->
  <g transform="translate(64, 64)">
    <!-- 锁的上半部分（锁扣） -->
    <path d="M -12 -20 
             A 12 12 0 0 1 12 -20
             L 12 -8
             L 8 -8
             L 8 -20
             A 8 8 0 0 0 -8 -20
             L -8 -8
             L -12 -8
             Z" 
          fill="url(#lockGradient)" 
          stroke="#e2e8f0" 
          stroke-width="1"/>
    
    <!-- 锁的下半部分（锁体） -->
    <rect x="-16" y="-8" width="32" height="24" rx="4" ry="4" 
          fill="url(#lockGradient)" 
          stroke="#e2e8f0" 
          stroke-width="1"/>
    
    <!-- 钥匙孔 -->
    <circle cx="0" cy="2" r="3" fill="#667eea"/>
    <rect x="-1" y="2" width="2" height="6" fill="#667eea"/>
    
    <!-- 装饰点 -->
    <circle cx="-8" cy="2" r="1" fill="#cbd5e0" opacity="0.6"/>
    <circle cx="8" cy="2" r="1" fill="#cbd5e0" opacity="0.6"/>
    <circle cx="-8" cy="8" r="1" fill="#cbd5e0" opacity="0.6"/>
    <circle cx="8" cy="8" r="1" fill="#cbd5e0" opacity="0.6"/>
  </g>
  
  <!-- 安全盾牌装饰 -->
  <g transform="translate(64, 64)" opacity="0.8">
    <path d="M -25 -25 
             L -20 -30 
             L -15 -25 
             L -15 -15 
             A 5 5 0 0 1 -25 -15 
             Z" 
          fill="#ffffff" 
          opacity="0.3"/>
    
    <path d="M 25 -25 
             L 20 -30 
             L 15 -25 
             L 15 -15 
             A 5 5 0 0 0 25 -15 
             Z" 
          fill="#ffffff" 
          opacity="0.3"/>
  </g>
  
  <!-- 数字密码点装饰 -->
  <g transform="translate(64, 64)" opacity="0.4">
    <circle cx="-28" cy="20" r="2" fill="#ffffff"/>
    <circle cx="-20" cy="25" r="2" fill="#ffffff"/>
    <circle cx="-12" cy="28" r="2" fill="#ffffff"/>
    
    <circle cx="12" cy="28" r="2" fill="#ffffff"/>
    <circle cx="20" cy="25" r="2" fill="#ffffff"/>
    <circle cx="28" cy="20" r="2" fill="#ffffff"/>
  </g>
</svg> 